
<svg xmlns="http://www.w3.org/2000/svg" width="512" height="512" viewBox="0 0 512 512" version="1.1"><path d="M 429.500 68 C 431.648 70.200, 433.631 72, 433.906 72 C 434.181 72, 432.648 70.200, 430.500 68 C 428.352 65.800, 426.369 64, 426.094 64 C 425.819 64, 427.352 65.800, 429.500 68 M 241.158 68.106 C 216.095 70.334, 188.329 83.281, 163 104.547 C 129.252 132.883, 103.818 174.764, 95.013 216.500 C 92.299 229.365, 91.282 252.613, 92.932 264.084 C 95.422 281.393, 102.651 297.829, 112.692 309.008 C 118.257 315.203, 129.689 322.991, 137.514 325.919 C 152.749 331.620, 181.060 334.372, 200.803 332.073 C 233.612 328.253, 263.736 313.708, 288.779 289.594 L 299.262 279.500 274.881 279 C 252.162 278.534, 250.218 278.349, 246.366 276.289 C 236.710 271.124, 231.567 262.680, 231.571 252 C 231.576 241.541, 236.987 233.117, 246.796 228.301 L 252.500 225.500 305 225.500 L 357.500 225.500 362.727 227.863 C 369.592 230.967, 375.370 237.324, 377.514 244.132 C 379.133 249.271, 379.078 251.701, 376.222 301 C 372.969 357.146, 373.051 356.617, 366.415 363.962 C 360.485 370.526, 355.942 372.462, 346.422 372.483 C 339.162 372.498, 337.848 372.194, 333.456 369.479 C 330.768 367.817, 327.103 364.535, 325.312 362.187 C 319.967 355.179, 319.600 352.274, 320.947 327.654 C 321.604 315.639, 321.954 305.621, 321.725 305.392 C 321.497 305.163, 319.269 308.019, 316.776 311.738 C 293.979 345.741, 251.616 374.041, 206.500 385.406 C 187.616 390.163, 156.238 392.289, 137.350 390.091 C 85.595 384.066, 51.628 351.350, 40.948 297.235 C 36.862 276.537, 37.283 247.085, 42.013 222.686 C 43.085 217.155, 43.782 212.449, 43.562 212.229 C 42.762 211.429, 34.748 237.780, 32.507 248.574 C 28.741 266.723, 27.702 279.944, 28.254 302.709 C 28.811 325.697, 31.136 341.114, 37.043 361 C 48.277 398.820, 70.970 436.161, 94 454.723 C 132.188 485.502, 175.587 504.208, 223.301 510.455 C 238.441 512.437, 273.596 512.487, 288 510.547 C 333.184 504.460, 374.466 487.769, 409.556 461.397 C 424.950 449.828, 430.712 444.162, 439.324 432.125 C 463.615 398.174, 476.327 367.014, 482.110 327.250 C 483.967 314.486, 484.181 309.672, 483.703 291.500 C 483.082 267.869, 481.139 254.042, 475.625 234 C 462.308 185.604, 432.807 142.848, 391.500 112.077 C 357.379 86.660, 318.671 72.207, 273.500 68.021 C 261.179 66.879, 254.763 66.896, 241.158 68.106 M 443.500 82 C 445.648 84.200, 447.631 86, 447.906 86 C 448.181 86, 446.648 84.200, 444.500 82 C 442.352 79.800, 440.369 78, 440.094 78 C 439.819 78, 441.352 79.800, 443.500 82 M 511.252 237.500 C 511.263 239.700, 511.468 240.482, 511.707 239.238 C 511.946 237.994, 511.937 236.194, 511.687 235.238 C 511.437 234.282, 511.241 235.300, 511.252 237.500 M 444.437 429.250 L 441.500 432.500 444.750 429.563 C 446.538 427.948, 448 426.485, 448 426.313 C 448 425.540, 447.175 426.221, 444.437 429.250" stroke="none" fill="#1c3c8c" fill-rule="evenodd"/><path d="M 224.879 1.519 C 184.188 7.072, 145.843 21.287, 113.817 42.692 C 51.975 84.024, 11.207 149.609, 1.546 223.310 C -0.266 237.128, -0.496 266.648, 1.083 282.576 C 6.597 338.206, 32.551 394.157, 70.860 432.997 C 80.398 442.667, 80.825 442.985, 76.254 437 C 52.744 406.225, 38.530 374.578, 31.341 337 C 29.269 326.173, 28.658 319.383, 28.254 302.709 C 27.702 279.944, 28.741 266.723, 32.507 248.574 C 34.748 237.780, 42.762 211.429, 43.562 212.229 C 43.782 212.449, 43.085 217.155, 42.013 222.686 C 37.283 247.085, 36.862 276.537, 40.948 297.235 C 51.628 351.350, 85.595 384.066, 137.350 390.091 C 156.238 392.289, 187.616 390.163, 206.500 385.406 C 251.616 374.041, 293.979 345.741, 316.776 311.738 C 319.269 308.019, 321.497 305.163, 321.725 305.392 C 321.954 305.621, 321.604 315.639, 320.947 327.654 C 319.600 352.274, 319.967 355.179, 325.312 362.187 C 327.103 364.535, 330.768 367.817, 333.456 369.479 C 337.848 372.194, 339.162 372.498, 346.422 372.483 C 355.942 372.462, 360.485 370.526, 366.415 363.962 C 373.051 356.617, 372.969 357.146, 376.222 301 C 379.078 251.701, 379.133 249.271, 377.514 244.132 C 375.370 237.324, 369.592 230.967, 362.727 227.863 L 357.500 225.500 305 225.500 L 252.500 225.500 246.796 228.301 C 236.987 233.117, 231.576 241.541, 231.571 252 C 231.567 262.680, 236.710 271.124, 246.366 276.289 C 250.218 278.349, 252.162 278.534, 274.881 279 L 299.262 279.500 288.779 289.594 C 263.736 313.708, 233.612 328.253, 200.803 332.073 C 181.060 334.372, 152.749 331.620, 137.514 325.919 C 129.689 322.991, 118.257 315.203, 112.692 309.008 C 102.651 297.829, 95.422 281.393, 92.932 264.084 C 91.282 252.613, 92.299 229.365, 95.013 216.500 C 103.967 174.057, 129.989 131.774, 165 102.778 C 181.531 89.086, 205.353 76.038, 222 71.556 C 259.219 61.536, 314.367 69.666, 358.332 91.655 C 415.509 120.252, 458.773 172.756, 475.625 234 C 481.139 254.042, 483.082 267.869, 483.703 291.500 C 484.181 309.672, 483.967 314.486, 482.110 327.250 C 476.183 368.003, 463.245 398.914, 436.381 436.500 C 433.499 440.532, 434.377 439.855, 440.916 433 C 468.756 403.817, 489.916 367.661, 501.490 329.500 C 505.310 316.907, 509.831 294.286, 510.621 283.817 C 510.987 278.967, 511.672 275, 512.143 275 C 512.615 275, 512.927 264.988, 512.837 252.750 C 512.747 240.512, 512.409 232.975, 512.084 236 C 511.502 241.432, 511.485 241.388, 510.773 232.500 C 504.784 157.803, 462.433 86.472, 398.373 43.187 C 365.249 20.805, 328.584 7.188, 286 1.453 C 272.853 -0.317, 238.061 -0.280, 224.879 1.519 M 0.428 254 C 0.428 266.375, 0.571 271.438, 0.747 265.250 C 0.922 259.063, 0.922 248.938, 0.747 242.750 C 0.571 236.563, 0.428 241.625, 0.428 254" stroke="none" fill="#3cdbfb" fill-rule="evenodd"/></svg>